<?xml version="1.0" encoding="utf-8"?>
<!-- Generator: Adobe Illustrator 19.0.0, SVG Export Plug-In . SVG Version: 6.00 Build 0)  -->
<svg version="1.1" id="Layer_1" xmlns="http://www.w3.org/2000/svg" xmlns:xlink="http://www.w3.org/1999/xlink" x="0px" y="0px"
	 viewBox="0 0 200 200" style="enable-background:new 0 0 200 200;" xml:space="preserve">
<style type="text/css">
	.st0{fill:#E1EDF1;}
	.st1{fill:#4A5260;}
	.st2{fill:#515966;}
	.st3{fill:#FFFFFF;}
	.st4{fill:#EDF3F4;}
	.st5{fill:#2D223E;}
	.st6{fill:#F47D6D;}
	.st7{fill:#95B8E1;}
</style>
<g id="_x36_">
	<path id="XMLID_16_" class="st0" d="M116.4,37.7h-32V19.4c0-1.3,1-2.3,2.3-2.3H114c1.3,0,2.3,1,2.3,2.3V37.7z"/>
	<circle id="XMLID_15_" class="st1" cx="100.3" cy="108.7" r="72.6"/>
	<path id="XMLID_14_" class="st2" d="M49,57.4c28.3-28.3,74.3-28.3,102.6,0L49,160C20.7,131.7,20.7,85.7,49,57.4z"/>
	<circle id="XMLID_13_" class="st3" cx="99.9" cy="108.4" r="56.9"/>
	<path id="XMLID_12_" class="st4" d="M140.6,149c-22.2,22.2-58.3,22.2-80.5,0l80.5-80.5C162.8,90.7,162.8,126.7,140.6,149z"/>
	<path class="st5" d="M162.6,108.2c-0.3-33.9-27.8-61.4-61.7-61.7c-0.2,0-0.3,0-0.5,0s-0.4,0-0.5,0c-33.9,0.3-61.4,27.8-61.7,61.7
		c0,0.2,0,0.3,0,0.5c0,0.2,0,0.4,0,0.6c0.3,33.9,27.8,61.4,61.7,61.7c0.2,0,0.3,0,0.5,0s0.4,0,0.5,0c33.9-0.3,61.5-27.8,61.7-61.7
		c0-0.2,0-0.4,0-0.6C162.6,108.5,162.6,108.3,162.6,108.2z M151.5,114h0.2c-2.5,24.2-21.8,43.5-46,46c-0.1-2.8-2.5-5.1-5.3-5.1
		c-2.9,0-5.2,2.2-5.3,5.1c-24.2-2.5-43.5-21.8-46-46c2.7-0.3,4.7-2.6,4.7-5.3c0-2.7-2.1-5-4.7-5.3c2.5-24.2,21.8-43.5,46-46
		c0.2,2.7,2.5,4.8,5.3,4.8c2.8,0,5.1-2.1,5.3-4.8c24.2,2.5,43.5,21.8,46,46h-0.2c-2.9,0-5.3,2.4-5.3,5.3
		C146.1,111.7,148.5,114,151.5,114z"/>
	<polygon id="XMLID_9_" class="st6" points="112.4,120.7 88.3,96.7 122,87 	"/>
	<path class="st5" d="M113.5,125.9c0.1,0,0.1,0,0.2,0c0.5-0.1,0.9-0.3,1.3-0.5c-0.4,0.2-0.7,0.4-1.2,0.5L113.5,125.9z"/>
	<polygon id="XMLID_7_" class="st7" points="88.3,96.7 112.3,120.7 78.6,130.4 	"/>
	<path class="st5" d="M125.8,83.2c-1.4-1.4-3.4-1.9-5.2-1.4l-33.5,9.6c0,0-0.1,0-0.1,0c-0.1,0-0.1,0-0.1,0.1
		c-0.2,0.1-0.5,0.2-0.7,0.2c-0.2,0.1-0.5,0.2-0.7,0.4c-0.2,0.1-0.3,0.2-0.5,0.3c-0.2,0.1-0.4,0.3-0.6,0.5c-0.1,0.1-0.3,0.3-0.4,0.5
		c-0.1,0.2-0.3,0.4-0.4,0.6c-0.2,0.3-0.4,0.7-0.5,1.1l0,0.1l-9.7,33.6c-0.5,1.9,0,3.9,1.3,5.3c1,1,2.4,1.5,3.8,1.5
		c0.5,0,1-0.1,1.5-0.2l33.4-9.6l0.3-0.1c0.4-0.1,0.8-0.3,1.2-0.5c0.2-0.1,0.5-0.3,0.7-0.5c0.2-0.1,0.3-0.3,0.5-0.5
		c0.2-0.2,0.3-0.3,0.5-0.5c0.1-0.2,0.3-0.4,0.4-0.6c0.1-0.2,0.2-0.4,0.3-0.6c0.1-0.2,0.1-0.3,0.2-0.5l9.7-33.7
		C127.7,86.6,127.2,84.6,125.8,83.2z M114.3,94.8l-4.5,15.7L98.5,99.3L114.3,94.8z M86.4,122.6l4.5-15.7l11.2,11.2L86.4,122.6z"/>
	<path class="st5" d="M121.7,33.8V23.3c0-6.4-5.2-11.5-11.5-11.5H90.5c-6.4,0-11.6,5.2-11.6,11.5v10.5
		c-32.6,9.3-56.5,39.4-56.5,74.9c0,43,35,77.9,77.9,77.9c43,0,77.9-34.9,77.9-77.9C178.2,73.2,154.3,43.1,121.7,33.8z M89.7,23.3
		c0-0.5,0.4-0.9,0.9-0.9h19.6c0.5,0,0.9,0.4,0.9,0.9v8.3c-3.5-0.5-7-0.7-10.7-0.7c-3.6,0-7.2,0.2-10.7,0.7V23.3z M100.3,175.9
		c-37.1,0-67.2-30.2-67.2-67.2c0-32.1,22.6-59,52.7-65.6c4.7-1,9.6-1.6,14.5-1.6s9.9,0.6,14.5,1.6c30.1,6.6,52.7,33.5,52.7,65.6
		C167.5,145.8,137.4,175.9,100.3,175.9z"/>
</g>
</svg>
