<?xml version="1.0" encoding="utf-8"?>
<!-- Generator: Adobe Illustrator 19.0.0, SVG Export Plug-In . SVG Version: 6.00 Build 0)  -->
<svg version="1.1" id="Layer_1" xmlns="http://www.w3.org/2000/svg" xmlns:xlink="http://www.w3.org/1999/xlink" x="0px" y="0px"
	 viewBox="0 0 205.2 108.5" style="enable-background:new 0 0 205.2 108.5;" xml:space="preserve">
<style type="text/css">
	.st0{fill:#FFFFFF;}
</style>
<g id="XMLID_1_">
	<path id="XMLID_12_" class="st0" d="M23.9,42.6h-4.1v-4.8h14.6v4.8h-4.2v16.6c0,1.9,0.4,3.7,1.2,4.9c1.2,1.9,3.6,3,6.5,3
		s5.1-1,6.4-3.1c0.8-1.3,1.2-2.9,1.2-4.9V42.6h-4.1v-4.8h14.6v4.8h-4.1v16.6c0,3.3-0.9,6.4-2.5,8.6c-2.5,3.3-6.8,4.9-11.4,4.9
		c-4.9,0-9-1.7-11.4-4.8c-1.8-2.3-2.6-5.2-2.6-8.7V42.6z"/>
	<path id="XMLID_14_" class="st0" d="M59.8,67.4h4.1V42.6h-4.1v-4.8h14.6v4.8h-4.2v24.8h4.2v4.7H59.8V67.4z"/>
</g>
<g id="XMLID_3_">
	<path id="XMLID_8_" class="st0" d="M120.4,42.6h-4.1v-4.8h14.6v4.8h-4.2v16.6c0,1.9,0.4,3.7,1.2,4.9c1.2,1.9,3.6,3,6.5,3
		s5.1-1,6.4-3.1c0.8-1.3,1.2-2.9,1.2-4.9V42.6h-4.1v-4.8h14.6v4.8h-4.1v16.6c0,3.3-0.9,6.4-2.5,8.6c-2.5,3.3-6.8,4.9-11.4,4.9
		c-4.9,0-9-1.7-11.4-4.8c-1.8-2.3-2.6-5.2-2.6-8.7V42.6z"/>
	<path id="XMLID_10_" class="st0" d="M155.4,67.4h3l8.7-12.7l-8.4-12.1h-3v-4.8h13v4.8h-3.4l4.7,7.1c0.3,0.4,0.6,0.7,0.7,1
		c0.1,0.1,0.2,0.3,0.2,0.4h0.1c0,0,0.3-0.6,0.9-1.5l4.6-7.1h-3.3v-4.8h12.5v4.8h-3L174,55.2l8.6,12.2h3v4.7h-13v-4.7h3.4l-4.8-7.2
		c-0.3-0.4-0.6-0.7-0.7-1.1c-0.1-0.1-0.2-0.3-0.2-0.4h-0.1c-0.1,0-0.4,0.7-0.9,1.5l-4.6,7.2h3.3v4.7h-12.6V67.4z"/>
</g>
<path id="XMLID_132_" class="st0" d="M198,7v94.5h-94.5V7H198 M205,0H96.5v108.5H205V0L205,0z"/>
</svg>
