<?xml version="1.0" encoding="utf-8"?>
<!-- Generator: Adobe Illustrator 19.0.0, SVG Export Plug-In . SVG Version: 6.00 Build 0)  -->
<svg version="1.1" id="Wireframe" xmlns="http://www.w3.org/2000/svg" xmlns:xlink="http://www.w3.org/1999/xlink" x="0px" y="0px"
	 viewBox="0 0 1800 2400" style="enable-background:new 0 0 1800 2400;" xml:space="preserve">
<style type="text/css">
	.st0{fill:#FFFFFF;stroke:#CCCCCC;stroke-width:3;stroke-miterlimit:10;}
	.st1{fill:#FFFFFF;}
	.st2{fill:#CCCCCC;}
	.st3{fill:none;stroke:#CCCCCC;stroke-width:3;stroke-miterlimit:10;}
	.st4{fill:none;stroke:#CCCCCC;stroke-width:2;stroke-miterlimit:10;}
	.st5{fill:#F2F2F2;}
</style>
<g>
	<path class="st0" d="M524.9,693.6h-4.3c-2.2,0-4-1.8-4-4v-56.7c0-2.2,1.8-4,4-4h4.3V693.6z"/>
	<path class="st0" d="M524.9,829.3h-4.3c-2.2,0-4-1.8-4-4v-45.7c0-2.2,1.8-4,4-4h4.3V829.3z"/>
	<path class="st0" d="M524.9,961.9h-4.3c-2.2,0-4-1.8-4-4v-45.7c0-2.2,1.8-4,4-4h4.3V961.9z"/>
	<path class="st0" d="M1151.3,407.9h-120v-5.3c0-2.2,1.8-4,4-4h112c2.2,0,4,1.8,4,4V407.9z"/>
	<g>
		<path class="st1" d="M634,1992c-59.6,0-108-48.4-108-108V516c0-28.4,10.8-55.5,30.5-76.4c18.9-20.1,43.9-31.6,68.4-31.6H1157
			c66.7,0,117,46.4,117,108v1368c0,59.6-48.4,108-108,108H634z"/>
		<path class="st2" d="M1157,410c32.3,0,61.7,11.1,82.9,31.1c20.7,19.6,32.1,46.2,32.1,74.9v1368c0,28.3-11,54.9-31,75
			c-20,20-46.6,31-75,31H634c-28.3,0-54.9-11-75-31c-20-20-31-46.6-31-75V516c0-27.9,10.7-54.5,30-75c18.6-19.7,43-31,67-31H1157
			 M1157,406H625c-51.7,0-101,49.2-101,110v1368c0,60.8,49.2,110,110,110H1166c60.8,0,110-49.2,110-110V516
			C1276,455.3,1226.8,406,1157,406L1157,406z"/>
	</g>
	<g>
		<path class="st2" d="M1220,631.9v1136H580v-1136H1220 M1223,628.9h-3H580h-3v3v1136v3h3h640h3v-3v-1136V628.9L1223,628.9z"/>
	</g>
	<circle class="st3" cx="901.5" cy="1880" r="68.6"/>
	<path class="st3" d="M969.1,544.1c0,8.3-6.7,15-15,15H848c-8.3,0-15-6.7-15-15l0,0c0-8.3,6.7-15,15-15h106
		C962.3,529.1,969.1,535.8,969.1,544.1L969.1,544.1z"/>
	<path class="st4" d="M929.3,1892.9c0,8.3-6.7,15-15,15h-24.7c-8.3,0-15-6.7-15-15v-24.7c0-8.3,6.7-15,15-15h24.7
		c8.3,0,15,6.7,15,15V1892.9z"/>
	<circle class="st3" cx="901" cy="484.3" r="14"/>
	<g>
		<g>
			<path class="st5" d="M760.7,872.1h-129c-8.6,0-15.6-7-15.6-15.6v-129c0-8.6,7-15.6,15.6-15.6h129c8.6,0,15.6,7,15.6,15.6v129
				C776.3,865.1,769.3,872.1,760.7,872.1z"/>
		</g>
		<g>
			<path class="st5" d="M760.7,1108.1h-129c-8.6,0-15.6-7-15.6-15.6v-129c0-8.6,7-15.6,15.6-15.6h129c8.6,0,15.6,7,15.6,15.6v129
				C776.3,1101.1,769.3,1108.1,760.7,1108.1z"/>
		</g>
		<g>
			<path class="st5" d="M760.7,1344.1h-129c-8.6,0-15.6-7-15.6-15.6v-129c0-8.6,7-15.6,15.6-15.6h129c8.6,0,15.6,7,15.6,15.6v129
				C776.3,1337.1,769.3,1344.1,760.7,1344.1z"/>
		</g>
	</g>
	<g>
		<rect x="822" y="711.8" class="st5" width="266.8" height="32.7"/>
		<rect x="822" y="775.6" class="st5" width="358" height="32.7"/>
		<rect x="822" y="839.4" class="st5" width="298" height="32.7"/>
		<rect x="822" y="947.8" class="st5" width="266.8" height="32.7"/>
		<rect x="822" y="1011.6" class="st5" width="358" height="32.7"/>
		<rect x="822" y="1075.4" class="st5" width="298" height="32.7"/>
		<rect x="822" y="1183.8" class="st5" width="266.8" height="32.7"/>
		<rect x="822" y="1247.6" class="st5" width="358" height="32.7"/>
		<rect x="822" y="1311.4" class="st5" width="298" height="32.7"/>
	</g>
</g>
</svg>
